<?xml version="1.0" encoding="UTF-8"?>
<svg width="16px" height="16px" viewBox="0 0 16 16" version="1.1" xmlns="http://www.w3.org/2000/svg" xmlns:xlink="http://www.w3.org/1999/xlink">
    <title>PDF转CAD</title>
    <g id="PDF转CAD" stroke="none" stroke-width="1" fill="none" fill-rule="evenodd">
        <g>
            <path d="M15.5,15.2 L15.5,4.8 C15.5,4.63431458 15.3656854,4.5 15.2,4.5 L4.8,4.5 C4.63431458,4.5 4.5,4.63431458 4.5,4.8 L4.5,15.2 C4.5,15.3656854 4.63431458,15.5 4.8,15.5 L15.2,15.5 C15.3656854,15.5 15.5,15.3656854 15.5,15.2 Z" id="路径-86" stroke="#36425A" stroke-linecap="round" stroke-linejoin="round"></path>
            <path d="M12.5,12.5 L10,12.5 C8.61928813,12.5 7.5,11.3807119 7.5,10 C7.5,8.61928813 8.61928813,7.5 10,7.5 L12.5,7.5 L12.5,7.5" id="路径-88" stroke="#36425A" stroke-linecap="round" stroke-linejoin="round"></path>
            <path d="M12.5,4.5 L12.5,0.8 C12.5,0.634314575 12.3656854,0.5 12.2,0.5 L0.8,0.5 C0.634314575,0.5 0.5,0.634314575 0.5,0.8 L0.5,12.2 C0.5,12.3656854 0.634314575,12.5 0.8,12.5 L3.5,12.5 L3.5,12.5 L2.5,11.5 L3.5,12.5 L2.5,13.5" id="路径-87" stroke="#36425A" stroke-linecap="round" stroke-linejoin="round"></path>
            <rect id="矩形" x="0" y="0" width="16" height="16"></rect>
            <g id="编组">
                <path d="M15.5,15.2 L15.5,4.8 C15.5,4.63431458 15.3656854,4.5 15.2,4.5 L4.8,4.5 C4.63431458,4.5 4.5,4.63431458 4.5,4.8 L4.5,15.2 C4.5,15.3656854 4.63431458,15.5 4.8,15.5 L15.2,15.5 C15.3656854,15.5 15.5,15.3656854 15.5,15.2 Z" id="路径-86" stroke="#36425A" stroke-linecap="round" stroke-linejoin="round"></path>
                <path d="M12.5,12.5 L10,12.5 C8.61928813,12.5 7.5,11.3807119 7.5,10 C7.5,8.61928813 8.61928813,7.5 10,7.5 L12.5,7.5 L12.5,7.5" id="路径-88" stroke="#36425A" stroke-linecap="round" stroke-linejoin="round"></path>
                <path d="M12.5,4.5 L12.5,0.8 C12.5,0.634314575 12.3656854,0.5 12.2,0.5 L0.8,0.5 C0.634314575,0.5 0.5,0.634314575 0.5,0.8 L0.5,12.2 C0.5,12.3656854 0.634314575,12.5 0.8,12.5 L3.5,12.5 L3.5,12.5 L2.5,11.5 L3.5,12.5 L2.5,13.5" id="路径-87" stroke="#36425A" stroke-linecap="round" stroke-linejoin="round"></path>
                <rect id="矩形" x="0" y="0" width="16" height="16"></rect>
            </g>
        </g>
    </g>
</svg>