<?xml version="1.0" encoding="UTF-8"?>
<svg width="16px" height="16px" viewBox="0 0 16 16" version="1.1" xmlns="http://www.w3.org/2000/svg" xmlns:xlink="http://www.w3.org/1999/xlink">
    <title>隐藏与取消隐藏</title>
    <g id="隐藏与取消隐藏" stroke="none" stroke-width="1" fill="none" fill-rule="evenodd">
        <g fill="#FFFFFF">
            <path d="M7.5,2.5 C8.54901808,2.5 9.55676969,2.75791537 10.5232549,3.27374612 L3.82929668,11.3059096 C2.66937732,10.4987447 1.5913004,9.28236761 0.595065915,7.65677836 C0.536124762,7.5606021 0.536124515,7.43948967 0.595065276,7.34331318 L0.595065276,7.34331318 L0.793978493,7.025784 C2.72760006,4.00859467 4.96294056,2.5 7.5,2.5 Z" id="形状结合" fill-opacity="0.5"></path>
            <path d="M12.8781146,1.11588936 C13.0666821,1.27302895 13.1102806,1.53960089 12.9934814,1.74589071 L12.942133,1.8200922 L11.6545196,3.36495959 C12.8440561,4.21187051 13.9530046,5.45014024 14.9799387,7.07207522 C15.1454084,7.33341733 15.1454074,7.66672911 14.9772465,7.93227156 L14.9772465,7.93227156 L14.7692592,8.25357812 C12.690959,11.3967917 10.2822913,13 7.55802235,13 C6.4227916,13 5.34260925,12.7217685 4.31830406,12.1697756 L2.94213299,13.8200922 C2.76535095,14.0322306 2.4500686,14.0608927 2.23793015,13.8841106 C2.04936264,13.726971 2.00576415,13.4603991 2.12256327,13.2541093 L2.17391171,13.1799078 L3.46055317,11.6343483 C2.27138452,10.7874549 1.16276036,9.54941798 0.136105985,7.92792478 C-0.0293637344,7.66658267 -0.0293627109,7.33327089 0.138798206,7.06772844 L0.138798206,7.06772844 L0.346785461,6.74642188 C2.42508569,3.6032083 4.8337534,2 7.55802235,2 C8.6932531,2 9.77343546,2.27823146 10.7977406,2.83022442 L12.1739117,1.1799078 C12.3506938,0.967769352 12.6659761,0.93910732 12.8781146,1.11588936 Z M11.0121299,4.13557852 L9.5108048,5.93879135 C9.86077019,6.37588643 10.0580224,6.92254344 10.0580224,7.5 C10.0580224,8.88071187 8.93873423,10 7.55802235,10 C7.13830484,10 6.73344234,9.8959683 6.37376725,9.70218612 L4.97400611,11.382427 C5.72792978,11.7578656 6.50838372,11.961189 7.31584206,11.9949545 L7.31584206,11.9949545 L7.55802235,12 C9.90585838,12 12.0266326,10.5884135 13.9324326,7.70613198 L13.9324326,7.70613198 L14.0660224,7.5 L13.9383818,7.30287542 C13.013734,5.90313071 12.0387504,4.84970419 11.0121299,4.13557852 Z M7.55802235,3 C5.21018632,3 3.08941211,4.4115865 1.18361208,7.29386802 L1.18361208,7.29386802 L1.04902235,7.499 L1.17766287,7.69712458 C2.10231071,9.09686929 3.07729432,10.1502958 4.10391476,10.8644215 L10.1420028,3.61755521 C9.38809023,3.24212799 8.60764822,3.0388105 7.80020264,3.00504554 L7.80020264,3.00504554 Z M8.84807856,6.73386649 L7.03706119,8.90723044 C7.20141248,8.96807425 7.37710223,9 7.55802235,9 C8.38644948,9 9.05802235,8.32842712 9.05802235,7.5 C9.05802235,7.22467588 8.98374681,6.96176235 8.84807856,6.73386649 Z" id="stylebaseStrokeDark"></path>
        </g>
    </g>
</svg>